<?xml version="1.0" encoding="utf-8"?>
<!-- Generator: Adobe Illustrator 26.3.1, SVG Export Plug-In . SVG Version: 6.00 Build 0)  -->
<svg version="1.1" id="Layer_1" xmlns="http://www.w3.org/2000/svg" xmlns:xlink="http://www.w3.org/1999/xlink" x="0px" y="0px"
	 viewBox="0 0 216 206.4" style="enable-background:new 0 0 216 206.4;" xml:space="preserve">
<style type="text/css">
	.st0{fill-rule:evenodd;clip-rule:evenodd;}
</style>
<g>
	<polygon class="st0" points="24.8,168.7 16.3,168.7 16.3,172 24.1,172 24.1,174.9 16.3,174.9 16.3,179 25.2,179 25.2,181.8 
		13.1,181.8 13.1,165.9 24.8,165.9 24.8,168.7 	"/>
	<path class="st0" d="M35.5,177.5l1.6,1.5c-0.6,0.3-1.2,0.4-1.8,0.4c-1.8,0-4.3-1.1-4.3-5.6c0-4.5,2.5-5.6,4.3-5.6
		c1.8,0,4.3,1.1,4.3,5.6c0,1.5-0.3,2.6-0.7,3.4l-1.7-1.6L35.5,177.5L35.5,177.5z M43,181.1l-1.7-1.6c1-1.2,1.7-3.1,1.7-5.7
		c0-7.5-5.5-8.4-7.7-8.4c-2.1,0-7.6,0.9-7.6,8.4c0,7.5,5.5,8.4,7.6,8.4c0.9,0,2.6-0.2,4.1-1.1l1.9,1.8L43,181.1L43,181.1z"/>
	<path class="st0" d="M58.6,176.2c0,4.2-2.5,6-6.5,6c-1.5,0-3.6-0.4-5.1-1.9c-0.9-1-1.2-2.3-1.2-3.9v-10.6h3.4v10.3
		c0,2.2,1.3,3.2,2.8,3.2c2.3,0,3.2-1.1,3.2-3v-10.5h3.4V176.2L58.6,176.2z"/>
	<path class="st0" d="M67.5,169.5L67.5,169.5l2,6.3h-4.1L67.5,169.5L67.5,169.5z M64.6,178.5h5.9l1,3.3h3.6l-5.6-15.9h-3.8L60,181.8
		h3.5L64.6,178.5L64.6,178.5z"/>
	<polygon class="st0" points="81,178.9 88.9,178.9 88.9,181.8 77.7,181.8 77.7,165.9 81,165.9 81,178.9 	"/>
	<polygon class="st0" points="101.5,174.6 101.5,181.8 98.2,181.8 98.2,165.9 101.5,165.9 101.5,171.9 107.7,171.9 107.7,165.9 
		111.1,165.9 111.1,181.8 107.7,181.8 107.7,174.6 101.5,174.6 	"/>
	<path class="st0" d="M117.4,173.8c0-4.5,2.5-5.6,4.3-5.6c1.8,0,4.3,1.1,4.3,5.6c0,4.5-2.5,5.6-4.3,5.6
		C119.9,179.4,117.4,178.3,117.4,173.8L117.4,173.8z M114.1,173.8c0,7.5,5.5,8.4,7.6,8.4c2.1,0,7.7-0.9,7.7-8.4
		c0-7.5-5.5-8.4-7.7-8.4C119.6,165.4,114.1,166.4,114.1,173.8L114.1,173.8z"/>
	<path class="st0" d="M145.3,176.2c0,4.2-2.5,6-6.5,6c-1.5,0-3.6-0.4-5.1-1.9c-0.9-1-1.2-2.3-1.2-3.9v-10.6h3.4v10.3
		c0,2.2,1.3,3.2,2.8,3.2c2.3,0,3.2-1.1,3.2-3v-10.5h3.4V176.2L145.3,176.2z"/>
	<path class="st0" d="M151.3,176.9c0,0.9,0.5,2.6,3.4,2.6c1.6,0,3.3-0.4,3.3-2.1c0-1.2-1.2-1.6-2.9-2l-1.7-0.4
		c-2.6-0.6-5.1-1.2-5.1-4.7c0-1.8,1-4.9,6.1-4.9c4.9,0,6.2,3.2,6.2,5.1h-3.2c-0.1-0.7-0.4-2.4-3.3-2.4c-1.3,0-2.8,0.5-2.8,1.9
		c0,1.2,1,1.5,1.7,1.7l3.9,1c2.2,0.5,4.2,1.4,4.2,4.3c0,4.8-4.9,5.2-6.3,5.2c-5.8,0-6.8-3.3-6.8-5.3H151.3L151.3,176.9z"/>
	<polygon class="st0" points="167.3,181.8 164,181.8 164,165.9 167.3,165.9 167.3,181.8 	"/>
	<polygon class="st0" points="180.6,165.9 183.7,165.9 183.7,181.8 180.4,181.8 173.9,170.4 173.8,170.4 173.8,181.8 170.7,181.8 
		170.7,165.9 174.2,165.9 180.5,177 180.6,177 180.6,165.9 	"/>
	<path class="st0" d="M194.8,173.2h6.6v8.6h-2.2l-0.3-2c-0.8,1-2.1,2.4-5,2.4c-3.8,0-7.3-2.7-7.3-8.3c0-4.3,2.4-8.4,7.8-8.4
		c4.9,0,6.8,3.2,7,5.4h-3.3c0-0.6-1.1-2.6-3.5-2.6c-2.4,0-4.6,1.6-4.6,5.7c0,4.3,2.4,5.5,4.6,5.5c0.7,0,3.2-0.3,3.9-3.5h-3.7V173.2
		L194.8,173.2z"/>
	<path class="st0" d="M15.7,198c0-4.5,2.5-5.6,4.3-5.6c1.8,0,4.3,1.1,4.3,5.6c0,4.5-2.5,5.6-4.3,5.6C18.2,203.6,15.7,202.5,15.7,198
		L15.7,198z M12.4,198c0,7.5,5.5,8.4,7.6,8.4c2.1,0,7.6-0.9,7.6-8.4c0-7.5-5.5-8.4-7.6-8.4C17.9,189.6,12.4,190.5,12.4,198L12.4,198
		z"/>
	<path class="st0" d="M36.8,197.5v-4.7h2.6c2.1,0,2.9,0.6,2.9,2.2c0,0.7,0,2.5-2.5,2.5H36.8L36.8,197.5z M36.8,200.2h3.8
		c4.3,0,5.1-3.6,5.1-5.1c0-3.1-1.9-5.1-4.9-5.1h-7.3V206h3.3V200.2L36.8,200.2z"/>
	<path class="st0" d="M54.7,197.5v-4.7h2.6c2.1,0,2.9,0.6,2.9,2.2c0,0.7,0,2.5-2.5,2.5H54.7L54.7,197.5z M54.7,200.2h3.8
		c4.3,0,5.1-3.6,5.1-5.1c0-3.1-1.9-5.1-4.9-5.1h-7.3V206h3.3V200.2L54.7,200.2z"/>
	<path class="st0" d="M71.9,198c0-4.5,2.5-5.6,4.3-5.6c1.8,0,4.3,1.1,4.3,5.6c0,4.5-2.5,5.6-4.3,5.6C74.4,203.6,71.9,202.5,71.9,198
		L71.9,198z M68.6,198c0,7.5,5.5,8.4,7.7,8.4c2.1,0,7.6-0.9,7.6-8.4c0-7.5-5.5-8.4-7.6-8.4C74.1,189.6,68.6,190.5,68.6,198L68.6,198
		z"/>
	<path class="st0" d="M92.9,197.1v-4.3h4.1c2,0,2.3,1.2,2.3,2.1c0,1.6-0.8,2.2-2.6,2.2H92.9L92.9,197.1z M89.7,206h3.3v-6.2h3.4
		c2.5,0,2.6,0.8,2.6,3c0,1.6,0.1,2.5,0.3,3.2h3.7v-0.4c-0.7-0.3-0.7-0.8-0.7-3.2c0-3-0.7-3.5-2-4c1.6-0.5,2.5-2,2.5-3.8
		c0-1.4-0.8-4.5-5-4.5h-8.1V206L89.7,206z"/>
	<polygon class="st0" points="115.1,206 111.8,206 111.8,192.9 107,192.9 107,190.1 119.9,190.1 119.9,192.9 115.1,192.9 115.1,206 
			"/>
	<path class="st0" d="M137.8,200.4c0,4.2-2.5,6-6.5,6c-1.5,0-3.6-0.4-5.1-1.9c-0.9-1-1.2-2.3-1.2-3.9v-10.6h3.4v10.3
		c0,2.2,1.3,3.2,2.8,3.2c2.3,0,3.2-1.1,3.2-3v-10.5h3.4V200.4L137.8,200.4z"/>
	<polygon class="st0" points="153.9,190.1 157,190.1 157,206 153.6,206 147.2,194.6 147.1,194.6 147.1,206 144,206 144,190.1 
		147.5,190.1 153.8,201.1 153.9,201.1 153.9,190.1 	"/>
	<polygon class="st0" points="166.4,206 163,206 163,190.1 166.4,190.1 166.4,206 	"/>
	<polygon class="st0" points="179.3,206 176,206 176,192.9 171.2,192.9 171.2,190.1 184.2,190.1 184.2,192.9 179.3,192.9 179.3,206 
			"/>
	<polygon class="st0" points="196.7,206 193.4,206 193.4,200 187.9,190.1 191.8,190.1 195.1,197 198.3,190.1 202.1,190.1 196.7,200 
		196.7,206 	"/>
	<path class="st0" d="M107.2,0L0,52.8v24.8h12V152h189.6V77.6H216V52.8L107.2,0L107.2,0z M178.4,129.6H35.2v-68l72-36.8l71.2,36.8
		V129.6L178.4,129.6z"/>
	<polygon class="st0" points="140,85.6 73.6,85.6 73.6,61.6 140,61.6 140,85.6 	"/>
	<polygon class="st0" points="140,120 73.6,120 73.6,96 140,96 140,120 	"/>
</g>
</svg>
